<?xml version="1.0" standalone="no"?>
<!DOCTYPE svg PUBLIC "-//W3C//DTD SVG 20010904//EN"
 "http://www.w3.org/TR/2001/REC-SVG-20010904/DTD/svg10.dtd">
<svg version="1.0" xmlns="http://www.w3.org/2000/svg"
 width="124.000000pt" height="50.000000pt" viewBox="0 0 124.000000 50.000000"
 preserveAspectRatio="xMidYMid meet">

<g transform="translate(0.000000,50.000000) scale(0.100000,-0.100000)"
fill="#000000" stroke="none">
<path d="M30 300 l0 -180 45 0 45 0 0 44 0 44 66 7 c51 5 72 13 95 33 50 44
56 136 13 184 -32 35 -78 48 -174 48 l-90 0 0 -180z m188 78 c16 -16 15 -53
-2 -67 -8 -7 -32 -11 -53 -9 -33 3 -38 6 -41 31 -2 16 -1 35 2 43 7 17 77 19
94 2z"/>
<path d="M364 467 c-2 -7 -3 -89 -2 -181 l3 -169 45 0 45 0 3 86 c1 48 6 87
10 87 4 0 24 -30 46 -65 21 -36 42 -67 46 -70 5 -3 28 26 51 65 24 38 47 70
51 70 4 0 9 -39 10 -87 l3 -86 45 0 45 0 0 179 0 179 -45 0 c-44 0 -45 -1 -93
-70 -26 -38 -51 -73 -56 -78 -5 -5 -34 28 -65 72 -55 78 -59 81 -97 81 -23 0
-42 -5 -45 -13z"/>
<path d="M817 474 c-4 -4 -7 -85 -7 -180 l0 -172 46 -4 c25 -2 47 -1 50 1 2 2
4 42 4 88 0 45 3 83 8 83 4 0 27 -31 51 -70 23 -38 44 -70 46 -70 2 0 26 33
52 73 l48 72 5 -89 5 -89 45 0 45 0 3 133 3 133 -33 35 c-58 60 -59 59 -118
-24 -29 -42 -56 -72 -61 -67 -5 5 -30 40 -56 78 -45 65 -51 70 -88 73 -23 2
-44 0 -48 -4z"/>
</g>
</svg>
